PathFileType	4	(X/Y/Z)	/Users/itak/Documents/Research/Walk-IL/dataset/trc/00453_00167.trc
DataRate	CameraRate	NumFrames	NumMarkers	Units	OrigDataRate	OrigDataStartFrame	OrigNumFrames
100.000000	100.000000	4	53	mm	100.000000	335	536
Frame#	Time	RPSI			LPSI			L3			STRN			T10			C7			CLAV			RBAK			LBAK			LSHO			LUPA			LAEL			LAOL			LWTS			LWPS			LFRA			LIFD			LHPS			LHTS			RSHO			RUPA			RAEL			RAOL			RWTS			RWPS			RFRA			RIFD			RHTS			RHPS			RBHD			LFHD			RFHD			LBHD			LHIP			RHIP			RASI			LASI			LKNE			LTHI			LANK			LTIP			LTOE			LMT1			LMT5			LHEE			RKNE			RTHI			RANK			RTIP			RTOE			RMT1			RMT5			RHEE			
		X1	Y1	Z1	X2	Y2	Z2	X3	Y3	Z3	X4	Y4	Z4	X5	Y5	Z5	X6	Y6	Z6	X7	Y7	Z7	X8	Y8	Z8	X9	Y9	Z9	X10	Y10	Z10	X11	Y11	Z11	X12	Y12	Z12	X13	Y13	Z13	X14	Y14	Z14	X15	Y15	Z15	X16	Y16	Z16	X17	Y17	Z17	X18	Y18	Z18	X19	Y19	Z19	X20	Y20	Z20	X21	Y21	Z21	X22	Y22	Z22	X23	Y23	Z23	X24	Y24	Z24	X25	Y25	Z25	X26	Y26	Z26	X27	Y27	Z27	X28	Y28	Z28	X29	Y29	Z29	X30	Y30	Z30	X31	Y31	Z31	X32	Y32	Z32	X33	Y33	Z33	X34	Y34	Z34	X35	Y35	Z35	X36	Y36	Z36	X37	Y37	Z37	X38	Y38	Z38	X39	Y39	Z39	X40	Y40	Z40	X41	Y41	Z41	X42	Y42	Z42	X43	Y43	Z43	X44	Y44	Z44	X45	Y45	Z45	X46	Y46	Z46	X47	Y47	Z47	X48	Y48	Z48	X49	Y49	Z49	X50	Y50	Z50	X51	Y51	Z51	X52	Y52	Z52	X53	Y53	Z53	

336	3.35	656.1223754882812	806.3628540039062	842.6468505859375	746.0680541992188	816.56103515625	730.9000854492188	689.2332153320312	928.3218383789062	800.1206665039062	914.3064575195312	1160.978759765625	949.9391479492188	677.1921997070312	1053.177490234375	787.3058471679688	703.513671875	1330.745849609375	822.25927734375	876.9658203125	1270.273559570312	916.324462890625	611.1110229492188	1203.415405273438	868.1214599609375	735.5801391601562	1277.329956054688	726.2589721679688	863.6446533203125	1312.962280273438	710.61181640625	904.8704223632812	1210.106201171875	612.92236328125	926.6666870117188	1016.579895019531	536.2695922851562	826.9096069335938	995.5505981445312	555.2518310546875	988.4020385742188	817.4905395507812	565.752685546875	963.17138671875	801.5361328125	497.4391479492188	951.4379272460938	930.680419921875	519.1343383789062	1019.004638671875	654.7250366210938	564.6015625	984.7876586914062	720.6094970703125	496.6425476074219	1023.498962402344	737.11474609375	555.6889038085938	671.0120849609375	1309.6923828125	996.4031982421875	615.5742797851562	1245.013916015625	1047.121337890625	583.663818359375	965.8781127929688	1105.94140625	570.5958862304688	934.4453735351562	1046.734008789062	744.3239135742188	828.1959838867188	1164.29052734375	670.1163940429688	787.8871459960938	1171.587036132812	598.811279296875	912.4510498046875	1125.086059570312	788.7007446289062	694.0767211914062	1224.519165039062	774.8305053710938	752.5355834960938	1218.856323242188	707.6588745117188	722.3941040039062	1211.846435546875	689.8533325195312	1530.619995117188	897.0165405273438	881.6593017578125	1572.981567382812	833.7393188476562	810.2073364257812	1583.772338867188	942.8165283203125	773.7708740234375	1516.672119140625	741.5418701171875	952.2948608398438	767.2780151367188	744.452392578125	683.4931030273438	740.052001953125	1045.39208984375	784.4089965820312	810.8009033203125	1046.5244140625	952.868896484375	826.8428344726562	855.7159423828125	1154.019287109375	432.9872436523438	913.8375244140625	1112.16796875	578.251953125	858.411865234375	1055.627075195312	16.49906730651855	834.8232421875	1144.708740234375	271.6216430664062	893.5016479492188	1198.132690429688	25.65313339233398	1037.892822265625	1119.252685546875	41.46488952636719	1013.793823242188	1183.804443359375	25.06901931762695	915.754150390625	981.4000244140625	13.39235210418701	845.2171020507812	862.9462280273438	440.683349609375	1180.699340820312	762.55908203125	648.6626586914062	1121.954833984375	566.7971801757812	326.801513671875	903.4680786132812	770.746826171875	377.7887268066406	1105.295776367188	663.8069458007812	135.5803985595703	942.9109497070312	678.5748291015625	194.8113403320312	889.23388671875	591.0210571289062	211.043212890625	959.2777709960938	575.9805908203125	381.8596801757812	845.1176147460938	
337	3.36	666.754150390625	802.111328125	849.9053344726562	756.1629028320312	813.4315795898438	737.7001342773438	699.083984375	925.086181640625	806.604248046875	924.5816040039062	1158.254028320312	957.8673095703125	687.0758666992188	1050.022705078125	793.6814575195312	714.40283203125	1327.852783203125	828.7609252929688	887.25927734375	1267.527221679688	923.9961547851562	621.4800415039062	1200.409790039062	874.704345703125	747.1907958984375	1274.329467773438	732.20263671875	875.9395751953125	1309.478637695312	717.8832397460938	921.4491577148438	1203.545043945312	624.0072631835938	952.8228149414062	1009.444885253906	552.964111328125	852.7662963867188	985.9308471679688	567.9791259765625	1017.191284179688	812.327392578125	586.6992797851562	994.9378051757812	795.6275634765625	517.4841918945312	979.9586181640625	924.0693969726562	537.8878173828125	1051.154296875	650.1174926757812	585.9788208007812	1017.95751953125	715.490478515625	517.4666137695312	1053.875366210938	732.4569091796875	578.1309204101562	681.20947265625	1306.605346679688	1003.601989746094	626.5457153320312	1240.878784179688	1054.361328125	595.3414916992188	960.0328979492188	1109.814819335938	583.2874755859375	930.979248046875	1049.195190429688	744.7399291992188	810.5882568359375	1169.951904296875	667.6533203125	775.7394409179688	1170.864868164062	606.84912109375	905.1914672851562	1127.526245117188	773.4075317382812	672.2199096679688	1227.815795898438	765.2984008789062	731.3445434570312	1223.43017578125	696.8699951171875	707.39013671875	1210.820556640625	701.6112670898438	1528.61181640625	904.4130249023438	893.9363403320312	1569.83544921875	842.0009155273438	822.2044677734375	1580.740234375	950.9403686523438	786.002197265625	1514.734130859375	749.2288818359375	962.9561767578125	765.2217407226562	750.9571533203125	695.9379272460938	736.8656616210938	1052.985473632812	795.58349609375	808.9778442382812	1053.227661132812	963.5093994140625	825.1300659179688	861.85888671875	1164.02685546875	430.1752624511719	921.147705078125	1123.24658203125	575.901123046875	865.834228515625	1055.177368164062	17.3966121673584	834.86962890625	1150.214233398438	268.8736267089844	898.2978515625	1198.116821289062	26.19211006164551	1037.70654296875	1119.088012695312	41.81502151489258	1013.751281738281	1183.483520507812	26.01318550109863	915.5805053710938	980.9041748046875	13.76306915283203	845.2603759765625	886.1875610351562	446.5374450683594	1193.943359375	777.5498657226562	648.4672241210938	1130.718017578125	595.6532592773438	312.0191650390625	921.7882690429688	797.1058349609375	377.493408203125	1120.803833007812	701.67919921875	127.8458862304688	966.1814575195312	712.97412109375	186.4088287353516	910.1990356445312	625.1769409179688	199.8223266601562	980.7168579101562	602.2349243164062	365.7201232910156	861.9616088867188	
338	3.37	677.1426391601562	799.5451049804688	857.0886840820312	766.0299072265625	811.5885620117188	744.4661865234375	708.7615356445312	923.3098754882812	813.0818481445312	934.0845947265625	1157.170654296875	965.5064086914062	696.6075439453125	1048.229736328125	800.0068969726562	724.3668823242188	1326.235717773438	835.1019897460938	896.6314086914062	1266.349853515625	931.3598022460938	631.1443481445312	1198.674682617188	881.2670288085938	757.8443603515625	1272.71044921875	738.081298828125	887.07763671875	1307.657958984375	725.037109375	936.6649169921875	1199.250122070312	634.7755126953125	977.1810913085938	1004.54052734375	569.89208984375	877.131591796875	978.5079956054688	581.5103149414062	1044.750732421875	810.1597290039062	609.2330932617188	1025.490234375	792.1407470703125	539.4575805664062	1006.899230957031	919.8407592773438	557.42919921875	1082.590942382812	648.9650268554688	610.4766845703125	1050.13671875	712.977783203125	540.9447021484375	1083.222045898438	731.0274047851562	602.8309326171875	690.6174926757812	1304.992797851562	1010.468994140625	636.7131958007812	1238.50830078125	1061.427368164062	606.4215087890625	956.1558837890625	1113.87939453125	595.1087646484375	929.4850463867188	1051.963500976562	744.5369873046875	795.0928955078125	1174.165405273438	664.9952392578125	766.03466796875	1169.048706054688	614.4572143554688	900.0924682617188	1129.933715820312	757.2575073242188	652.686279296875	1227.130737304688	755.1284790039062	712.0784301757812	1224.883056640625	685.9087524414062	694.9407348632812	1207.241821289062	712.7772827148438	1528.069091796875	911.8880615234375	905.703369140625	1567.777587890625	850.3590087890625	833.705078125	1578.764770507812	959.164794921875	797.5848999023438	1514.324096679688	756.9475708007812	973.149658203125	763.9605102539062	757.3759155273438	707.8976440429688	735.4638061523438	1060.515869140625	806.4532470703125	808.6803588867188	1059.679321289062	973.8645629882812	824.2667846679688	867.909912109375	1172.629150390625	427.3069763183594	927.7233276367188	1133.216552734375	573.67822265625	872.8991088867188	1054.82421875	18.27137184143066	835.0176391601562	1154.808471679688	266.2974243164062	902.5231323242188	1198.134155273438	26.85077667236328	1037.4111328125	1118.98583984375	42.16538238525391	1013.695739746094	1183.182983398438	26.88444328308105	915.4844360351562	980.5431518554688	14.31192493438721	845.3570556640625	908.2119140625	453.341796875	1206.376586914062	791.6130981445312	649.451904296875	1139.024291992188	624.9965209960938	295.3121337890625	940.3156127929688	822.74365234375	377.330322265625	1135.939331054688	740.5803833007812	119.6416549682617	990.5349731445312	748.2372436523438	176.6086883544922	932.71826171875	660.1478271484375	187.4976654052734	1002.851745605469	628.9034423828125	347.2589721679688	878.8430786132812	
339	3.38	687.3046264648438	798.5509643554688	864.2517700195312	775.6886596679688	810.9828491210938	751.2369995117188	718.3695068359375	922.87060546875	819.5994262695312	942.9039916992188	1157.611206054688	972.90087890625	705.9252319335938	1047.695556640625	806.303955078125	733.5108032226562	1325.814208984375	841.3139038085938	905.1913452148438	1266.638427734375	938.4782104492188	640.2150268554688	1198.10693359375	887.7739868164062	767.6432495117188	1272.367065429688	743.9343872070312	897.1412963867188	1307.4111328125	732.0744018554688	950.4841918945312	1197.157592773438	645.087158203125	999.495849609375	1001.839599609375	586.6881713867188	899.7542114257812	973.2808227539062	595.59033203125	1070.812377929688	811.1829223632812	633.1220703125	1054.537475585938	791.1890258789062	563.2185668945312	1031.987670898438	918.015869140625	577.4533081054688	1113.0439453125	651.6346435546875	638.1289672851562	1081.038330078125	713.249755859375	567.0477905273438	1111.27880859375	733.1243896484375	629.6369018554688	699.2886352539062	1304.753173828125	1017.028015136719	646.0631713867188	1237.799682617188	1068.280883789062	616.7297973632812	954.190673828125	1118.125366210938	605.8648681640625	929.8688354492188	1055.076049804688	743.936767578125	781.9690551757812	1176.946411132812	662.3800048828125	758.800048828125	1166.5517578125	621.5411376953125	897.130615234375	1132.407104492188	741.2154541015625	635.8585815429688	1222.523315429688	745.009521484375	695.07470703125	1223.212890625	675.4174194335938	685.1078491210938	1201.489868164062	723.3573608398438	1528.883666992188	919.4196166992188	916.9383544921875	1566.79541015625	858.7783203125	844.6814575195312	1577.81884765625	967.4417724609375	808.5254516601562	1515.339477539062	764.6795043945312	982.927978515625	763.4710083007812	763.7242431640625	719.4171142578125	735.7457885742188	1068.035888671875	817.09375	809.7698974609375	1065.937622070312	984.0015869140625	824.2119750976562	873.8898315429688	1179.900512695312	424.4291687011719	933.6611938476562	1142.12744140625	571.6012573242188	879.63232421875	1054.557250976562	19.06312561035156	835.2376708984375	1158.571533203125	263.8836059570312	906.2789916992188	1198.160034179688	27.49543380737305	1037.092163085938	1118.90283203125	42.42631912231445	1013.666381835938	1182.898315429688	27.64848136901855	915.48583984375	980.2990112304688	14.87923908233643	845.472900390625	928.832275390625	460.7776794433594	1217.968994140625	804.74072265625	651.4786376953125	1146.952758789062	654.8225708007812	277.1097106933594	959.1004638671875	847.455810546875	377.2459411621094	1150.674560546875	780.1434326171875	111.3664016723633	1015.871948242188	784.1150512695312	165.8426208496094	956.6552734375	695.718505859375	174.4958953857422	1025.63720703125	656.089111328125	326.8892517089844	895.857421875	
